<svg height="300pt" preserveAspectRatio="xMidYMid meet" viewBox="0 0 300 300" width="300pt"
    fill="currentColor"
    xmlns="http://www.w3.org/2000/svg">
    <g transform="matrix(0.1,0,0,-0.1,0,300)">
        <path
            d="M 408.4 2932.6 c -82 -20 -184 -111 -223 -199 c -20 -43 -20 -72 -20 -1203 v -1158 l 27 -56 c 29 -64 85 -123 147 -157 l 41 -23 l 760 -3 c 843 -3 799 -6 799 62 c 0 76 53 70 -772 76 c -546 4 -744 8 -764 17 c -15 7 -41 31 -58 54 l -30 42 v 1151 v 1151 l 38 44 c 62 72 45 71 759 71 c 347 0 634 -4 637 -9 c 3 -4 8 -111 11 -237 c 7 -260 16 -308 72 -373 c 82 -97 142 -112 426 -111 c 114 1 211 -1 217 -5 c 7 -4 10 -194 10 -565 c 0 -397 3 -566 11 -584 c 24 -52 118 -48 132 5 c 4 13 7 304 7 646 v 621 l -44 44 c -24 24 -193 192 -376 373 l -332 330 l -722 2 c -396 0 -735 -2 -753 -6 z m 1808 -535 c 93 -92 166 -172 163 -177 s -80 -9 -172 -9 c -154 0 -171 2 -212 23 c -30 14 -53 36 -67 62 c -21 37 -23 53 -23 211 c 0 94 3 174 7 178 c 7 7 26 -11 304 -288 z" />
        <path
            d="M 588.4 1824.6 c -48 -9 -65 -79 -29 -116 c 20 -20 203 -32 255 -16 c 52 15 73 57 48 98 c -9 14 -26 29 -39 32 c -25 8 -200 9 -235 2 z" />
        <path
            d="M 1127.4 1824.6 c -12 -2 -29 -17 -37 -33 c -19 -36 -4 -85 28 -94 c 12 -3 264 -6 560 -6 h 538 l 24 25 c 30 29 31 52 4 85 l -21 25 l -537 1 c -295 1 -546 0 -559 -3 z" />
        <path
            d="M 549.4 1400.6 c -13 -26 -13 -36 -3 -60 c 6 -17 20 -34 30 -39 c 11 -6 325 -10 819 -10 c 697 0 805 2 830 15 c 39 20 49 59 23 93 l -20 27 l -831 3 l -831 2 z" />
        <path
            d="M 549.4 1010.6 c -19 -38 -6 -80 32 -98 c 33 -15 219 -14 247 1 c 47 25 58 61 31 103 c -16 25 -19 25 -155 25 h -138 z" />
        <path
            d="M 1089.4 1010.6 c -19 -38 -6 -80 32 -98 c 18 -8 182 -11 554 -11 h 528 l 31 26 c 37 31 40 62 8 92 l -23 22 h -557 h -556 z" />
        <path
            d="M 578.4 651.6 c -44 -18 -54 -78 -17 -114 c 14 -14 75 -16 522 -16 c 279 0 517 3 529 6 s 27 19 34 35 c 15 37 -3 76 -39 90 c -30 12 -1000 11 -1029 -1 z" />
        <path
            d="M 1895.4 654.6 c -23 -8 -50 -45 -50 -69 c 0 -11 10 -30 23 -42 c 23 -22 29 -22 309 -22 c 328 0 314 4 305 -85 c -7 -66 -27 -103 -75 -135 c -29 -21 -52 -26 -128 -30 c -71 -4 -97 -10 -113 -24 c -28 -26 -27 -67 4 -96 c 23 -21 30 -22 132 -18 c 87 4 116 9 151 28 c 61 32 115 88 148 151 c 26 50 28 63 28 176 c 1 182 34 168 -382 170 c -185 1 -344 -1 -352 -4 z" />
    </g>
</svg>